<svg xmlns="http://www.w3.org/2000/svg" viewBox="0 0 56 64" fill="none" width="200" height="230">
  <ellipse cx="28" cy="60" rx="14" ry="2" fill="oklch(0.22 0.03 45 / 0.18)"/>
  <defs>
    <linearGradient id="wispP" x1="0" y1="0" x2="1" y2="1">
      <stop offset="0%" stop-color="oklch(0.65 0.17 38)"/>
      <stop offset="100%" stop-color="oklch(0.5 0.16 30)"/>
    </linearGradient>
  </defs>
  <path d="M18 12 Q18 6, 24 6 L34 6 Q40 6, 40 12 L40 44 Q40 50, 34 50 L24 50 Q18 50, 18 44 L18 18 Q18 14, 22 14 L32 14 Q36 14, 36 18 L36 40 Q36 44, 32 44 L26 44"
    stroke="url(#wispP)" stroke-width="3.4" stroke-linecap="round" stroke-linejoin="round" fill="none"/>
  <ellipse cx="25" cy="22" rx="2" ry="2.4" fill="oklch(0.22 0.03 45)"/>
  <ellipse cx="33" cy="22" rx="2" ry="2.4" fill="oklch(0.22 0.03 45)"/>
  <circle cx="25.6" cy="21.4" r="0.6" fill="white"/>
  <circle cx="33.6" cy="21.4" r="0.6" fill="white"/>
  <ellipse cx="22" cy="27" rx="1.6" ry="1" fill="oklch(0.78 0.13 35 / 0.55)"/>
  <ellipse cx="36" cy="27" rx="1.6" ry="1" fill="oklch(0.78 0.13 35 / 0.55)"/>
  <path d="M25 28 Q29 31, 33 28" stroke="oklch(0.22 0.03 45)" stroke-width="1.4" stroke-linecap="round" fill="none"/>
</svg>
